<svg width="96" height="96" xmlns="http://www.w3.org/2000/svg" xmlns:xlink="http://www.w3.org/1999/xlink" xml:space="preserve" overflow="hidden"><defs><clipPath id="clip0"><rect x="-117" y="264" width="96" height="96"/></clipPath></defs><g clip-path="url(#clip0)" transform="translate(117 -264)"><path d="M-69 308C-74 308-78 304-78 299-78 294-74 290-69 290-64 290-60 294-60 299-60 304-64 308-69 308ZM-69 278C-75.9 278-82.4 281.4-86.3 287.2-90.2 292.9-91 300.2-88.5 306.7L-79 327.7-70.8 344.9C-70.5 345.6-69.8 346-69 346-68.2 346-67.5 345.6-67.2 344.9L-59 327.7-49.5 306.7C-47 300.2-47.8 292.9-51.7 287.2-55.6 281.4-62.1 278-69 278Z" fill="#00B050"/></g></svg>